# xmcd
#
# Track frame offsets:
#   150
#   14488
#   27656
#   42358
#   55168
#   70026
#   80625
#   92954
#   106081
#   123316
#   138474
#   153319
#   166075
#   182153
#   195311
#
# Disc length: 2797 seconds
#
# Revision: 0
# Processed by: cddbd v1.5.1PL0 Copyright (c) Steve Scherf et al.
# Submitted via: Media_Universe 3.0
#
DISCID=c40aeb0f
DTITLE=Adam Harvey - Second Time Around
DYEAR=1900
DGENRE=Country
TTITLE0=Been There Done That
TTITLE1=Tequilla Sunrise
TTITLE2=I Think I'll Have Another
TTITLE3=The Fighting Side Of Me
TTITLE4=Bog Bad John
TTITLE5=Hello Darlin
TTITLE6=Trashy Women
TTITLE7=Is It Raining At Your House
TTITLE8=I Blame You
TTITLE9=You Gave Me A Mountain
TTITLE10=Gypsy Queen
TTITLE11=Jacks House
TTITLE12=Sad Songs And Waltzes
TTITLE13=Treat Me Like A Dog
TTITLE14=The Kodoka Anthem (Battle For Australia)
EXTD=
EXTT0=
EXTT1=
EXTT2=
EXTT3=
EXTT4=
EXTT5=
EXTT6=
EXTT7=
EXTT8=
EXTT9=
EXTT10=
EXTT11=
EXTT12=
EXTT13=
EXTT14=
PLAYORDER=
